<?xml version="1.0" encoding="utf-8"?>
<svg viewBox="0 0 500 500" xmlns="http://www.w3.org/2000/svg" xmlns:xlink="http://www.w3.org/1999/xlink" xmlns:bx="https://boxy-svg.com">
  <defs>
    <style bx:fonts="Faustina">@import url(https://fonts.googleapis.com/css2?family=Faustina%3Aital%2Cwght%400%2C300%3B0%2C400%3B0%2C500%3B0%2C600%3B0%2C700%3B0%2C800%3B1%2C300%3B1%2C400%3B1%2C500%3B1%2C600%3B1%2C700%3B1%2C800&amp;display=swap);</style>
    <pattern x="0" y="0" width="25" height="25" patternUnits="userSpaceOnUse" viewBox="0 0 100 100" id="pattern-0">
      <rect x="0" y="0" width="50" height="100" style="fill: black;"/>
    </pattern>
    <pattern id="pattern-0-0" patternTransform="matrix(1, 0, 0, 1, 252.236823, 292.898308)" xlink:href="#pattern-0"/>
    <filter id="warp-filter-0" x="-500%" y="-500%" width="1000%" height="1000%" bx:preset="warp 1 14 1">
      <feComponentTransfer>
        <feFuncR type="table" tableValues="1 0.5"/>
      </feComponentTransfer>
      <feMerge result="a">
        <feMergeNode/>
        <feMergeNode in="SourceGraphic"/>
      </feMerge>
      <feTurbulence type="fractalNoise" baseFrequency="0.1" numOctaves="1" result="warp"/>
      <feDisplacementMap xChannelSelector="R" yChannelSelector="G" scale="14" in="a" in2="warp"/>
    </filter>
    <filter id="point-light-filter-0" primitiveUnits="objectBoundingBox" x="-500%" y="-500%" width="1000%" height="1000%" bx:preset="point-light 1 0.39 0.67 0.79 34 1 0.39 0.02 #ffffff">
      <feSpecularLighting result="specular-lighting" lighting-color="#ffffff" specularConstant="1" specularExponent="34">
        <fePointLight x="0.39" y="0.67" z="0.79"/>
      </feSpecularLighting>
      <feDiffuseLighting result="diffuse-lighting" lighting-color="#ffffff" diffuseConstant="0.39">
        <fePointLight x="0.39" y="0.67" z="0.79"/>
      </feDiffuseLighting>
      <feMerge result="lighting">
        <feMergeNode in="diffuse-lighting"/>
        <feMergeNode in="specular-lighting"/>
      </feMerge>
      <feComposite in="SourceGraphic" in2="lighting" operator="arithmetic" k1="1" k2="0.02" k3="0" k4="0"/>
    </filter>
    <filter id="drop-shadow-filter-0" x="-500%" y="-500%" width="1000%" height="1000%" bx:preset="drop-shadow 1 2 4 0 0.19 rgba(0,0,0,0.3)">
      <feGaussianBlur in="SourceAlpha" stdDeviation="0"/>
      <feOffset dx="2" dy="4"/>
      <feComponentTransfer result="offsetblur">
        <feFuncA id="spread-ctrl" type="linear" slope="0.38"/>
      </feComponentTransfer>
      <feFlood flood-color="rgba(0,0,0,0.3)"/>
      <feComposite in2="offsetblur" operator="in"/>
      <feMerge>
        <feMergeNode/>
        <feMergeNode in="SourceGraphic"/>
      </feMerge>
    </filter>
    <linearGradient gradientUnits="userSpaceOnUse" x1="241.33" y1="-11.225" x2="241.33" y2="197.502" id="gradient-0" gradientTransform="matrix(0.865928, 0, 0, 0.840611, 20.234047, 35.058928)">
      <stop offset="0" style="stop-color: rgba(0, 0, 0, 1)"/>
      <stop offset="1" style="stop-color: rgba(0, 0, 0, 1)"/>
    </linearGradient>
    <linearGradient gradientUnits="userSpaceOnUse" x1="230.754" y1="13.693" x2="230.754" y2="161.067" id="gradient-1" gradientTransform="matrix(0.865928, 0, 0, 0.840611, 20.234047, 35.058928)">
      <stop offset="0" style="stop-color: rgba(0, 0, 0, 1)"/>
      <stop offset="1" style="stop-color: rgba(0, 0, 0, 1)"/>
    </linearGradient>
  </defs>
  <path stroke="rgb(255,0,0)" stroke-width="0" d="M 270.872 87.516 C 279.215 86.766 288.748 87.053 295.417 87.516 C 300.576 87.875 302.01 87.964 308.18 89.422 C 318.99 91.978 345.76 100.319 358.25 104.672 C 367.039 107.733 371.243 108.707 378.377 112.773 C 387.001 117.688 403.488 131.361 406.113 133.502 C 406.755 134.027 406.581 133.885 406.849 134.217 C 407.217 134.674 407.164 135.203 408.076 136.123 C 410.123 138.187 420.084 144.746 421.821 146.606 C 422.496 147.33 422.182 147.615 422.558 148.036 C 422.972 148.501 423.844 148.877 424.276 149.227 C 424.601 149.492 424.51 149.374 425.012 149.943 C 426.753 151.916 434.523 159.738 439.493 167.812 C 446.264 178.813 455.252 197.517 460.601 212.607 C 465.785 227.231 469.462 242.369 471.4 256.925 C 473.269 270.945 473.646 285.279 472.382 298.384 C 471.187 310.778 468.766 321.591 464.528 333.647 C 459.909 346.79 451.667 361.581 444.893 374.153 C 438.548 385.928 432.184 397.668 425.257 407.034 C 419.096 415.364 412.839 422.087 405.867 428.239 C 399.14 434.176 393.43 438.201 384.268 443.489 C 372.468 450.299 362.066 460.463 339.107 464.933 C 300.768 472.398 200.203 473.874 157.968 464.933 C 129.343 458.874 111.599 444.007 97.098 434.435 C 86.644 427.534 81.876 423.042 74.763 414.659 C 66.456 404.87 57.55 390.552 51.2 377.965 C 45.038 365.752 40.865 352.6 36.964 340.319 C 33.255 328.64 29.764 317.61 28.128 306.008 C 26.494 294.418 26.57 281.088 27.147 270.744 C 27.637 261.939 28.718 256.427 30.583 247.394 C 32.904 236.147 37.527 218.706 40.891 207.841 C 43.555 199.239 45.565 193.332 48.745 186.397 C 51.941 179.43 58.335 168.323 60.036 166.145 C 60.556 165.479 60.382 166.01 61.018 165.43 C 63.083 163.548 72.389 153.03 76.972 148.989 C 80.414 145.953 84.733 143.726 86.053 142.318 C 86.662 141.668 86.448 141.249 86.789 140.888 C 87.112 140.547 87.69 140.491 88.017 140.173 C 88.344 139.855 88.426 139.3 88.753 138.982 C 89.08 138.664 89.641 138.523 89.98 138.267 C 90.28 138.042 89.978 137.988 90.717 137.552 C 93.961 135.64 115.826 124.371 129.006 120.397 C 142.017 116.474 154.757 115.166 169.259 113.726 C 185.21 112.141 213.741 115.776 221.048 111.819 C 224.751 109.814 223.619 104.492 224.484 103.242 C 224.866 102.69 225.164 102.865 225.466 102.527 C 225.83 102.118 225.54 101.579 226.448 100.859 C 228.734 99.044 237.515 94.459 244.364 92.282 C 252.086 89.826 262.21 88.296 270.872 87.516 Z" style="stroke: rgb(129, 151, 57); stroke-width: 2px; fill: rgb(232, 27, 27); filter: url(#point-light-filter-0);"/>
  <path style="filter: url(#drop-shadow-filter-0); fill: rgb(55, 119, 0); stroke-opacity: 0.79; stroke: url(#gradient-0); stroke-miterlimit: 1;" d="M 225.992 46.329 C 230.724 45.979 240.598 47.967 243.418 51.333 C 245.905 54.301 245.274 59.557 243.909 64.2 C 242.205 70.001 234.023 76.218 231.637 83.261 C 229.192 90.48 229.566 100.857 229.673 107.088 C 229.753 111.665 230.033 114.121 231.146 118.048 C 231.389 118.907 231.68 119.821 232.008 120.766 C 236.428 114.438 247.549 101.01 258.089 88.676 C 258.841 87.634 259.577 86.758 260.285 86.11 C 267.88 77.263 274.897 69.3 278.517 65.391 C 283.65 59.849 286.968 57.787 289.071 55.622 C 290.258 54.401 290.421 53.845 291.28 53.001 C 292.203 52.093 292.982 51.844 294.471 50.38 C 297.207 47.689 304.371 38.513 306.988 36.322 C 308.248 35.267 309.022 35.494 309.688 34.893 C 310.283 34.356 310.036 33.697 310.915 32.986 C 312.555 31.661 317.148 29.033 320.733 28.221 C 324.482 27.372 330.051 27.409 333.006 28.221 C 335.172 28.817 336.645 29.842 337.669 31.318 C 338.756 32.884 339.367 35.963 339.142 37.514 C 338.973 38.678 338.112 39.634 337.424 40.135 C 336.85 40.552 336.158 40.735 335.46 40.611 C 334.622 40.462 333.373 39.803 332.76 38.943 C 332.071 37.977 332.96 35.682 331.778 34.893 C 330.116 33.782 325.042 33.885 321.715 34.893 C 320.354 35.304 318.746 36.153 317.168 37.144 C 317.318 37.266 317.445 37.391 317.542 37.514 C 318.055 38.162 318.541 38.226 318.033 39.896 C 316.181 45.998 294.751 75.604 285.635 93.268 C 279.187 105.762 272.369 125.194 267.9 135.862 C 272.735 133.758 278.761 131.503 283.917 129.723 C 293.429 126.44 306.989 124.332 315.333 121.146 C 321.88 118.647 326.517 116.028 331.042 113.045 C 335.145 110.339 339.007 106.669 341.596 104.229 C 343.477 102.457 343.607 101.399 345.769 99.702 C 349.057 97.12 354.898 93.609 360.986 90.648 C 368.34 87.07 382.288 80.637 387.495 80.164 C 390.173 79.92 391.812 81.044 392.649 81.831 C 393.212 82.362 393.267 83.06 393.14 83.738 C 392.986 84.551 392.911 85.333 391.422 86.359 C 387.939 88.758 373.288 92.377 365.487 96.086 C 365.727 96.537 365.745 97.052 365.65 97.558 C 365.497 98.37 365.059 99.161 363.932 100.178 C 361.955 101.961 356.301 103.983 352.887 106.85 C 349.225 109.923 346.29 114.914 342.823 118.286 C 339.568 121.454 334.626 124.789 332.76 126.626 C 331.758 127.613 332.762 127.557 331.042 128.77 C 324.552 133.348 264.975 158.92 262.563 163.796 C 261.706 165.527 265.194 165.884 267.718 166.417 C 271.652 167.247 280.313 167.311 285.39 166.417 C 289.756 165.648 294.322 162.06 296.68 162.128 C 298.064 162.168 298.85 163.025 299.379 163.796 C 299.895 164.546 300.11 165.635 299.87 166.655 C 299.577 167.905 298.766 169.414 297.17 170.706 C 294.863 172.574 290.161 174.757 285.881 175.948 C 281.121 177.271 275.79 177.695 269.681 177.853 C 266.929 177.925 263.798 177.647 260.558 177.309 C 260.187 177.431 259.79 177.463 259.372 177.378 C 259.155 177.332 258.898 177.236 258.625 177.103 C 253.985 176.606 249.232 176.104 245.137 176.424 C 238.23 176.962 230.491 180.744 225.992 180.712 C 223.07 180.693 221.023 178.46 219.61 178.807 C 218.565 179.063 218.117 180.54 217.647 181.189 C 217.303 181.663 217.31 181.857 216.91 182.381 C 216.258 183.235 215.266 185.066 213.719 185.954 C 211.826 187.044 208.295 188.07 205.865 187.861 C 203.57 187.663 203.087 184.89 199.483 185.001 C 191.919 185.235 167.197 197.569 157.268 199.774 C 151.075 201.149 148.379 201.391 143.523 200.727 C 139.919 200.236 134.377 198.598 130.434 197.014 C 130.035 197.072 129.53 197.049 128.796 196.915 C 124.674 196.166 111.44 188.34 103.76 186.431 C 97.224 184.806 89.918 184.492 85.597 185.001 C 82.678 185.346 80.821 187.48 79.216 187.384 C 78.032 187.314 77.033 186.386 76.517 185.717 C 76.086 185.159 75.898 184.488 76.026 183.81 C 76.178 182.997 76.757 181.988 77.744 181.189 C 79.094 180.095 80.95 178.739 84.125 178.33 C 89.329 177.661 100.234 178.573 108.178 180.712 C 114.266 182.352 123.335 186.334 128.766 189.261 C 128.917 189.263 129.089 189.273 129.287 189.291 C 130.399 189.39 132.671 190.168 135.2 191.074 C 136.195 190.826 137.306 190.667 137.877 190.243 C 138.576 189.725 137.846 189.194 139.105 188.338 C 142.999 185.688 173.734 175.973 175.185 174.041 C 175.586 173.507 175.176 173.686 173.958 173.088 C 173.663 172.943 173.249 172.763 172.726 172.548 C 171.698 172.221 170.742 171.88 169.893 171.525 C 169.579 171.394 169.282 171.255 168.998 171.108 C 164.028 169.259 156.165 166.493 147.446 163.39 C 146.002 163.18 144.623 162.897 143.385 162.471 C 140.619 161.521 137.637 160.387 135.148 158.979 C 121.235 153.936 107.503 148.728 101.306 145.449 C 93.522 141.33 91.982 139.728 87.315 134.727 C 81.43 128.419 73.307 115.864 69.644 108.994 C 67.08 104.187 65.121 99.498 65.226 97.081 C 65.285 95.702 66.324 94.955 66.944 94.46 C 67.408 94.088 67.796 93.888 68.417 93.983 C 69.35 94.125 70.878 94.682 72.099 96.128 C 74.082 98.481 74.929 103.916 77.989 108.994 C 80.578 113.29 85.25 120.093 89.615 125.827 C 90.065 125.793 90.646 125.821 91.488 125.911 C 96.763 126.48 114.581 133.069 125.36 134.966 C 135.284 136.711 143.75 135.51 153.831 137.348 C 164.209 139.24 182.191 148.097 188.405 147.652 C 188.505 146.086 188.639 144.565 188.792 143.172 C 189.024 141.065 189.356 138.829 189.774 136.663 C 188.624 129.449 185.228 117.798 181.567 107.088 C 177.097 94.018 170.278 74.896 163.895 63.723 C 158.881 54.948 153.2 48.54 147.941 43.47 C 143.648 39.332 138.564 36.053 135.177 34.416 C 132.905 33.317 130.759 32.335 129.532 32.986 C 128.32 33.631 128.637 37.387 127.814 38.228 C 127.269 38.785 126.548 38.828 125.85 38.705 C 125.013 38.557 123.731 38.113 123.151 37.037 C 122.298 35.457 122.226 30.793 122.66 28.936 C 122.955 27.671 123.758 26.81 124.378 26.315 C 124.842 25.944 125.086 25.91 125.85 25.838 C 127.239 25.709 130.362 25.721 132.723 26.315 C 133.457 26.5 134.323 26.803 135.214 27.161 C 136.576 26.521 138.47 26.033 140.086 25.838 C 142.253 25.578 144.231 25.384 146.959 26.315 C 150.882 27.655 156.582 31.01 161.44 35.13 C 167.286 40.09 173.31 47.468 179.112 55.145 C 184.268 61.967 192.889 73.826 196.553 80.613 C 199.678 75.288 202.875 70.118 205.129 66.582 C 209.345 59.968 212.737 54.501 216.665 51.094 C 219.724 48.441 222.186 46.612 225.992 46.329 Z"/>
  <path style="filter: url(#drop-shadow-filter-0); fill: rgb(55, 119, 0); stroke-opacity: 0.79; stroke: url(#gradient-1); stroke-miterlimit: 1;" d="M 226.174 46.666 C 228.747 46.159 235.99 47.77 238.447 48.573 C 240.788 49.338 242.501 51.806 244.092 53.575 C 245.704 55.369 244.997 57.923 245.565 60.247 C 246.123 62.533 241.107 67.007 240.165 70.254 C 238.326 76.593 233.383 76.139 231.82 81.692 C 229.545 89.773 230.406 107.32 230.347 114.572 C 230.297 120.69 231.998 129.191 233.292 133.157 C 234.246 136.083 233.395 135.513 234.52 136.732 C 235.186 137.453 235.591 137.187 236.238 137.923 C 237.334 139.171 239.41 142.041 240.165 144.595 C 240.987 147.379 241.399 151.263 240.656 154.125 C 239.94 156.879 237.764 159.77 235.992 161.511 C 234.508 162.97 233.068 163.795 231.083 164.371 C 228.773 165.04 225.463 165.512 222.738 164.848 C 219.809 164.132 210.189 172.764 207.275 169.851 C 203.124 165.703 203.928 147.927 201.384 139.829 C 198.441 130.461 194.182 114.685 194.512 104.088 C 194.816 94.293 194.863 88.837 197.948 79.785 C 201.232 70.151 212.727 56.094 217.339 51.432 C 219.898 48.846 223.688 47.156 226.174 46.666 Z"/>
  <text style="font-family: Faustina; font-size: 260px; font-style: italic; font-weight: 800; paint-order: fill; stroke: url(#pattern-0-0); stroke-dashoffset: -27px; stroke-miterlimit: 33; stroke-opacity: 0.45; stroke-width: 12px; filter: url(#warp-filter-0);" transform="matrix(0.850709, -0.156907, 0.161632, 0.825837, -122.295219, 109.702614)" x="154.762" y="367.473" dx="-0.022" dy="9.228">404</text>
</svg>